<svg   viewBox="0 0 20 20" id="data-manage"  xmlns="http://www.w3.org/2000/svg">
<path fill-rule="evenodd" clip-rule="evenodd" d="M2.39535 4.2259C2.02609 4.4587 2 4.60897 2 4.63333C2 4.6577 2.02609 4.80797 2.39535 5.04077C2.73958 5.2578 3.27092 5.47176 3.97198 5.65871C5.36679 6.03066 7.32144 6.26667 9.5 6.26667C11.6786 6.26667 13.6332 6.03066 15.028 5.65871C15.7291 5.47176 16.2604 5.2578 16.6047 5.04077C16.9739 4.80797 17 4.6577 17 4.63333C17 4.60897 16.9739 4.4587 16.6047 4.2259C16.2604 4.00887 15.7291 3.79491 15.028 3.60796C13.6332 3.23601 11.6786 3 9.5 3C7.32144 3 5.36679 3.23601 3.97198 3.60796C3.27092 3.79491 2.73958 4.00887 2.39535 4.2259ZM18 4.63333C18 4.06859 17.5784 3.65764 17.138 3.37999C16.6726 3.08656 16.0323 2.84083 15.2857 2.64172C13.7851 2.24156 11.7397 2 9.5 2C7.26029 2 5.21494 2.24156 3.71432 2.64172C2.96767 2.84083 2.32743 3.08656 1.86202 3.37999C1.42163 3.65764 1 4.06859 1 4.63333L1 9.5L1 15.3667C1 15.9314 1.42162 16.3424 1.86202 16.62C2.32742 16.9134 2.96766 17.1592 3.71431 17.3583C4.87221 17.6671 6.35442 17.8814 8 17.9632V16.9619C6.43037 16.8811 5.03774 16.6762 3.97198 16.392C3.27091 16.2051 2.73958 15.9911 2.39534 15.7741C2.02609 15.5413 2 15.391 2 15.3667L2 10.8361C2.45061 11.0933 3.03893 11.3115 3.71432 11.4916C4.87221 11.8004 6.35442 12.0147 8 12.0965V11.0952C6.43037 11.0144 5.03775 10.8096 3.97198 10.5254C3.27092 10.3384 2.73958 10.1245 2.39534 9.90743C2.02609 9.67463 2 9.52436 2 9.5L2 5.96939C2.45061 6.22659 3.03893 6.44484 3.71432 6.62495C5.21494 7.02511 7.26029 7.26667 9.5 7.26667C11.7397 7.26667 13.7851 7.02511 15.2857 6.62495C15.9611 6.44484 16.5494 6.22659 17 5.9694L17 9H18L18 4.63333ZM10.4623 11.067L12.2307 12.0879C12.6802 11.5451 13.3172 11.1632 14.0425 11.0415V9H15.0425V11.0415C15.7677 11.1631 16.4048 11.5451 16.8543 12.0879L18.6226 11.067L19.1226 11.933L17.3549 12.9536C17.4762 13.2794 17.5425 13.6319 17.5425 14C17.5425 14.368 17.4762 14.7206 17.3549 15.0464L19.1226 16.067L18.6226 16.933L16.8543 15.9121C16.4048 16.4549 15.7677 16.8368 15.0425 16.9585V19H14.0425V16.9585C13.3172 16.8368 12.6802 16.4549 12.2307 15.9121L10.4623 16.933L9.96234 16.067L11.73 15.0464C11.6088 14.7206 11.5425 14.368 11.5425 14C11.5425 13.632 11.6088 13.2794 11.73 12.9536L9.96232 11.933L10.4623 11.067ZM14.5425 12C13.4379 12 12.5425 12.8954 12.5425 14C12.5425 15.1046 13.4379 16 14.5425 16C15.647 16 16.5425 15.1046 16.5425 14C16.5425 12.8954 15.647 12 14.5425 12Z" fill="currentColor" />
</svg>
