<svg   viewBox="0 0 20 20" id="data-add"  xmlns="http://www.w3.org/2000/svg">
<path fill-rule="evenodd" clip-rule="evenodd" d="M2.39535 4.2259C2.02609 4.4587 2 4.60897 2 4.63333C2 4.6577 2.02609 4.80797 2.39535 5.04077C2.73958 5.2578 3.27092 5.47176 3.97198 5.65871C5.36679 6.03066 7.32144 6.26667 9.5 6.26667C11.6786 6.26667 13.6332 6.03066 15.028 5.65871C15.7291 5.47176 16.2604 5.2578 16.6047 5.04077C16.9739 4.80797 17 4.6577 17 4.63333C17 4.60897 16.9739 4.4587 16.6047 4.2259C16.2604 4.00887 15.7291 3.79491 15.028 3.60796C13.6332 3.23601 11.6786 3 9.5 3C7.32144 3 5.36679 3.23601 3.97198 3.60796C3.27092 3.79491 2.73958 4.00887 2.39535 4.2259ZM18 4.63333C18 4.06859 17.5784 3.65764 17.138 3.37999C16.6726 3.08656 16.0323 2.84083 15.2857 2.64172C13.7851 2.24156 11.7397 2 9.5 2C7.26029 2 5.21494 2.24156 3.71432 2.64172C2.96767 2.84083 2.32743 3.08656 1.86202 3.37999C1.42163 3.65764 1 4.06859 1 4.63333L1 9.5L1 15.3667C1 15.9314 1.42162 16.3424 1.86202 16.62C2.32742 16.9134 2.96766 17.1592 3.71431 17.3583C4.10757 17.4631 4.53823 17.5571 5 17.6387V16.6223C4.6313 16.5533 4.28733 16.4761 3.97198 16.392C3.27091 16.2051 2.73958 15.9911 2.39534 15.7741C2.02609 15.5413 2 15.391 2 15.3667L2 10.8361C2.45061 11.0933 3.03893 11.3115 3.71432 11.4916C5.21494 11.8918 7.26029 12.1333 9.5 12.1333C11.7397 12.1333 13.7851 11.8918 15.2857 11.4916C15.9611 11.3115 16.5494 11.0933 17 10.8361V12H18V9.5L18 4.63333ZM17 5.9694C16.5494 6.22659 15.9611 6.44484 15.2857 6.62495C13.7851 7.02511 11.7397 7.26667 9.5 7.26667C7.26029 7.26667 5.21494 7.02511 3.71432 6.62495C3.03893 6.44484 2.45061 6.22659 2 5.96939L2 9.5C2 9.52436 2.02609 9.67463 2.39534 9.90743C2.73958 10.1245 3.27092 10.3384 3.97198 10.5254C5.36679 10.8973 7.32144 11.1333 9.5 11.1333C11.6786 11.1333 13.6332 10.8973 15.028 10.5254C15.7291 10.3384 16.2604 10.1245 16.6047 9.90743C16.9739 9.67463 17 9.52436 17 9.5L17 5.9694ZM14.8536 18.3535L18.8536 14.3536L18.1464 13.6465L14.5 17.2929L11.3536 14.1465L11 13.7929L10.6465 14.1465L6.64647 18.1465L7.35358 18.8536L11 15.2071L14.1465 18.3535L14.5 18.7071L14.8536 18.3535Z" fill="currentColor" />
</svg>
