<svg t="1737106434894" class="icon" viewBox="0 0 1024 1024" version="1.1" xmlns="http://www.w3.org/2000/svg" p-id="5366" width="16" height="16"><path d="M213.333333 247.466667a8.533333 8.533333 0 0 0-8.533333 8.533333v170.666667c0 4.693333 3.84 8.533333 8.533333 8.533333h256a34.133333 34.133333 0 1 1 0 68.266667H213.333333A76.8 76.8 0 0 1 136.533333 426.666667V256A76.8 76.8 0 0 1 213.333333 179.2h256a34.133333 34.133333 0 0 1 0 68.266667H213.333333zM136.533333 640A76.8 76.8 0 0 1 213.333333 563.2h597.333334a76.8 76.8 0 0 1 76.8 76.8v170.666667a76.8 76.8 0 0 1-76.8 76.8H213.333333A76.8 76.8 0 0 1 136.533333 810.666667v-170.666667z m76.8-8.533333a8.533333 8.533333 0 0 0-8.533333 8.533333v170.666667c0 4.693333 3.84 8.533333 8.533333 8.533333h597.333334a8.533333 8.533333 0 0 0 8.533333-8.533333v-170.666667a8.533333 8.533333 0 0 0-8.533333-8.533333H213.333333zM725.333333 443.733333a102.4 102.4 0 1 0 0-204.8 102.4 102.4 0 0 0 0 204.8z m0 68.266667a170.666667 170.666667 0 1 0 0-341.333333 170.666667 170.666667 0 0 0 0 341.333333z" p-id="5367"></path><path d="M768 341.333333a42.666667 42.666667 0 1 1-85.333333 0 42.666667 42.666667 0 0 1 85.333333 0z" p-id="5368"></path></svg>