<svg t="1737447786017" class="icon" viewBox="0 0 1024 1024" version="1.1" xmlns="http://www.w3.org/2000/svg" p-id="2607" width="200" height="200"><path d="M750.231 668.295c-55.296 0-100.286 45.005-100.286 100.3 0 55.307 44.99 100.311 100.286 100.311 55.311 0 100.301-45.004 100.301-100.31 0-55.296-44.99-100.3-100.3-100.3z m0 148.925c-26.81 0-48.614-21.814-48.614-48.624 0-26.8 21.804-48.615 48.614-48.615 26.815 0 48.63 21.815 48.63 48.615 0 26.81-21.815 48.624-48.63 48.624z m265.185-101.027c-3.764-19.862-16.509-32.7-32.873-32.7h-2.27c-31.306 0-56.79-25.47-56.79-56.77 0-8.22 3.595-18.319 4.96-21.484 7.75-17.457 1.786-38.882-15.44-50.81l-66.399-36.765c-5.202-2.246-10.826-3.393-16.716-3.393-12.027 0-23.911 4.9-31.785 13.061-8.274 8.526-30.242 26.122-45.375 26.122-15.272 0-37.379-17.937-45.667-26.592-7.913-8.363-19.906-13.358-32.067-13.358-5.826 0-11.365 1.113-16.34 3.264l-1.242 0.51-67.57 37.111-1.608 1.039c-15.707 10.93-21.706 32.344-14.006 49.648 0.514 1.236 5.03 12.226 5.03 21.647 0 31.3-25.48 56.77-56.8 56.77h-2.646c-15.966 0-28.72 12.838-32.482 32.72-0.574 3.056-5.603 30.518-5.603 52.72 0 22.21 5.03 49.667 5.603 52.753 3.76 19.857 16.505 32.695 32.878 32.695h2.245c31.32 0 56.805 25.475 56.805 56.77 0 8.22-3.596 18.319-4.96 21.489-7.74 17.433-1.796 38.837 15.37 50.805l65.148 36.3c5.193 2.256 10.816 3.423 16.72 3.423 12.246 0 24.259-5.124 32.107-13.684 8.022-8.71 30.806-27.785 46.37-27.785 15.727 0 38.254 19.115 46.676 28.353 7.903 8.71 19.995 13.902 32.339 13.902 5.806 0 11.335-1.112 18.056-4.09l65.87-36.394 1.577-1.044c15.688-10.904 21.672-32.299 13.981-49.623-0.514-1.241-5.03-12.226-5.03-21.652 0-31.295 25.485-56.77 56.79-56.77h2.617c15.999 0 28.758-12.838 32.507-32.645 0.05-0.277 5.618-29.446 5.618-52.804 0-22.2-5.025-49.663-5.598-52.74z m-49.36 87.432c-53.487 6.998-94.238 52.67-94.238 107.526 0 12.666 3.056 24.693 5.746 32.834l-47.531 26.275c-4.273-4.188-11.093-10.464-19.545-16.73-21.009-15.589-41.36-23.521-60.47-23.521-18.95 0-39.138 7.779-60.019 23.08a191.197 191.197 0 0 0-19.42 16.405l-45.435-25.42c2.695-8.155 5.776-20.257 5.776-32.923 0-54.856-40.742-100.528-94.233-107.526-1.37-8.852-3.288-23.284-3.288-34.693 0-11.459 1.909-25.85 3.288-34.678 53.482-7.003 94.233-52.685 94.233-107.531 0-12.631-3.056-24.654-5.742-32.8L674.238 567c4.258 4.006 11.088 10.035 19.48 16.01 20.599 14.682 40.46 22.135 59.01 22.135 18.369 0 38.062-7.31 58.522-21.72 8.323-5.846 15.064-11.692 19.356-15.678l46.978 26.103c-2.69 8.15-5.761 20.207-5.761 32.873 0 54.856 40.736 100.528 94.222 107.53 1.4 9.012 3.304 23.374 3.304 34.689-0.001 11.39-1.9 25.707-3.294 34.683zM70.033 950.483v-56.8c0-193.123 148.93-352.285 338.673-370.222l-0.082-0.04s0.191 0 0.495 0.01c11.632-1.093 23.4-1.706 35.313-1.706 1.793 0 3.56 0.099 5.346 0.119 41.963-3.255 105.46-13.114 138.644-42.735l16.241-12.658c63.442-49.541 99.83-123.556 99.83-203.053 0-142.45-116.68-258.334-260.112-258.334S184.27 120.948 184.27 263.397c0 79.497 36.39 153.512 99.832 203.053l16.237 12.658-19.132 7.596C112.198 553.807 2.99 713.552 2.99 893.684v90.028c0 18.329 15.027 33.24 33.516 33.24h489.767c-15.944-20.42-29.535-42.696-40.52-66.469H70.033z m181.28-687.086c0-105.8 86.606-191.87 193.068-191.87 106.46 0 193.08 86.07 193.08 191.87 0 105.802-86.62 191.868-193.08 191.868-106.462-0.001-193.069-86.066-193.069-191.868z" p-id="2608"></path></svg>