<svg t="1737106513341" class="icon" viewBox="0 0 1024 1024" version="1.1" xmlns="http://www.w3.org/2000/svg" p-id="2843" width="16" height="16"><path d="M544.801 89.824c17.791 0 32.454 14.668 32.454 32.498v38.979c0 17.876 14.007 36.844 31.013 42.114l54.292 22.367c5.843 3.135 12.719 4.631 19.698 4.631 11.841 0 23.979-4.308 31.886-12.253l27.643-27.627c6.335-6.311 14.661-9.47 22.986-9.47s16.643 3.157 22.964 9.47l45.947 45.915c12.67 12.631 12.67 33.31 0 45.982l-27.645 27.606c-12.567 12.644-16.036 35.85-7.59 51.588l22.356 54.385c5.325 17.059 24.245 31.021 42.103 31.021h38.977c17.825 0 32.42 14.597 32.42 32.487v64.997c0 17.879-14.595 32.484-32.42 32.484h-38.977c-17.786 0-36.779 13.958-42.103 30.986l-22.356 54.387c-8.446 15.766-4.978 39.043 7.59 51.621l27.645 27.603c12.67 12.657 12.67 33.319 0 45.985l-45.947 45.949c-6.32 6.311-14.64 9.468-22.964 9.468s-16.651-3.154-22.986-9.468l-27.511-27.659c-7.934-7.904-20.041-12.204-31.853-12.204-7.004 0-13.905 1.513-19.763 4.686l-54.393 22.362c-17.005 5.309-31.013 24.239-31.013 42.124v38.866c0 17.83-14.661 32.466-32.454 32.466h-64.905c-17.923 0-32.524-14.637-32.524-32.466v-38.863c0-17.884-13.909-36.815-30.972-42.124l-54.466-22.362c-5.844-3.173-12.725-4.686-19.71-4.686-11.776 0-23.845 4.302-31.738 12.204l-27.678 27.659c-6.317 6.311-14.636 9.468-22.949 9.468s-16.626-3.154-22.93-9.468l-45.982-45.949c-12.571-12.666-12.571-33.328 0-45.985l27.645-27.603c12.636-12.58 16.036-35.856 7.627-51.621l-22.426-54.387c-5.26-17.026-24.145-30.986-42.031-31.015h-38.944c-17.862 0-32.49-14.64-32.49-32.526V479.52c0-17.889 14.629-32.487 32.49-32.487l38.944 0.036c17.887 0 36.813-13.97 42.097-31.024l22.362-54.418c8.48-15.74 5.044-38.944-7.627-51.588l-27.573-27.636c-12.642-12.642-12.642-33.319 0-45.951l45.91-45.915c6.303-6.311 14.614-9.47 22.93-9.47 8.314 0 16.634 3.157 22.949 9.47l27.714 27.627c7.926 7.956 20.017 12.259 31.823 12.259 6.97 0 13.84-1.5 19.694-4.64l54.361-22.367c17.062-5.271 30.972-24.237 30.972-42.114v-38.979c0-17.83 14.634-32.498 32.524-32.498h64.902m-32.385 584.473c89.637 0 162.303-72.645 162.303-162.352 0-89.664-72.667-162.359-162.303-162.359-89.664 0-162.325 72.697-162.325 162.359-0.001 89.707 72.663 162.352 162.325 162.352M544.801 5.371h-64.905c-64.501 0-116.978 52.464-116.978 116.953V134.1l-12.102 4.98-8.383-8.356c-21.981-21.969-51.333-34.112-82.573-34.112-31.274 0-60.642 12.165-82.694 34.253L131.3 176.737c-22.052 22.033-34.213 51.41-34.213 82.686 0 31.264 12.151 60.635 34.219 82.7l8.234 8.253-5.019 12.213-11.621-0.011c-64.561 0-117.022 52.46-117.022 116.942v64.926c0 64.502 52.461 116.98 116.944 116.98h11.657l5.029 12.193-8.229 8.215c-45.417 45.732-45.422 119.745-0.269 165.242l46.227 46.196c21.997 22.021 51.361 34.18 82.627 34.18 31.231 0 60.581-12.137 82.638-34.173l8.234-8.227 12.187 5.003v11.652c0 64.47 52.476 116.921 116.978 116.921h64.905c64.463 0 116.908-52.451 116.908-116.921v-11.646l12.197-5.015 8.002 8.046c22.343 22.255 51.674 34.361 82.864 34.361 31.23 0 60.579-12.132 82.637-34.161l45.991-45.994c22.074-22.065 34.237-51.443 34.237-82.711 0-31.279-12.171-60.662-34.269-82.738l-8.238-8.225 5.002-12.171h11.748c64.445 0 116.875-52.46 116.875-116.94v-64.997c0-64.482-52.43-116.942-116.875-116.942h-11.734l-5.007-12.181 8.214-8.204c22.149-22.155 34.307-51.564 34.282-82.864-0.027-31.279-12.219-60.644-34.331-82.689l-45.875-45.843c-22.07-22.049-51.423-34.186-82.66-34.186-31.199 0-60.533 12.111-82.601 34.101l-8.365 8.363-12.097-4.985v-11.769c0-64.484-52.446-116.948-116.909-116.948z m-32.387 584.471c-42.94 0-77.872-34.943-77.872-77.897 0-42.957 34.933-77.905 77.872-77.905 42.925 0 77.847 34.949 77.847 77.905 0 42.954-34.923 77.897-77.847 77.897z" p-id="2844"></path></svg>