<svg   viewBox="0 0 16 16" id="offline-task"  xmlns="http://www.w3.org/2000/svg">
<path fill-rule="evenodd" clip-rule="evenodd" d="M5.69098 0H6H9H9.30902L9.44721 0.276393L9.80902 1H13.5H14V1.5V13.5V14H13.5H1.5H1V13.5V1.5V1H1.5H5.19098L5.55279 0.276393L5.69098 0ZM10.4472 2.27639L10.309 2H13V13H2V2H4.69098L4.55279 2.27639L4.19098 3H5H10H10.809L10.4472 2.27639ZM5.80902 2H9.19098L8.69098 1H6.30902L5.80902 2ZM4 6H5V5H4V6ZM6 6H11V5H6V6ZM4 8H5V7H4V8ZM6 8H11V7H6V8ZM4 10H5V9H4V10ZM6 10H11V9H6V10Z" fill="currentColor" />
</svg>
