<svg   viewBox="0 0 20 20" id="task-management"  xmlns="http://www.w3.org/2000/svg">
<path fill-rule="evenodd" clip-rule="evenodd" d="M2 1H2.5H16.5H17V1.5V8.62605C16.6878 8.40145 16.3531 8.20611 16 8.04404V2H3V16H8.04404C8.20611 16.3531 8.40145 16.6878 8.62605 17H2.5H2V16.5V1.5V1ZM14 7V7.52054C13.8351 7.50694 13.6684 7.5 13.5 7.5C12.646 7.5 11.8337 7.67841 11.0983 8H10V7H14ZM8.85355 4.35355L6.35355 6.85355L6 7.20711L5.64645 6.85355L4.14645 5.35355L4.85355 4.64645L6 5.79289L8.14645 3.64645L8.85355 4.35355ZM6.35355 11.8536L8.85355 9.35355L8.14645 8.64645L6 10.7929L4.85355 9.64645L4.14645 10.3536L5.64645 11.8536L6 12.2071L6.35355 11.8536ZM14 6H10V5H14V6ZM9 13.5C9 11.0147 11.0147 9 13.5 9C15.9853 9 18 11.0147 18 13.5C18 15.9853 15.9853 18 13.5 18C11.0147 18 9 15.9853 9 13.5ZM13.5 10C11.567 10 10 11.567 10 13.5C10 15.433 11.567 17 13.5 17C15.433 17 17 15.433 17 13.5C17 11.567 15.433 10 13.5 10ZM13 13.5V11H14V13H16V14H13.5H13V13.5Z" fill="currentColor" />
</svg>
